# xmcd CD database file
#
# Track frame offsets:
#	182
#	18627
#	31297
#	50410
#	65057
#	79562
#	96235
#	109165
#	123647
#	138097
#
# Disc length: 2054 seconds
#
# Revision: 0
# Processed by: cddbd v1.5.1PL0 Copyright (c) Steve Scherf et al.
# Submitted via: CDex 1.51
#
DISCID=8508040a
DTITLE=Tito Puente - Fania Legengs of Salsa Vol. 3 Disc 2 Tito Puente
DYEAR=1995
DGENRE=Salsa
TTITLE0=Para los Rumberos
TTITLE1=Juventud del Presente
TTITLE2=Separala Tambien
TTITLE3=Te Desafio
TTITLE4=La Gloria Eres Tu
TTITLE5=Aquarious Let the Sunshine In
TTITLE6=La Plena Bomba Me llama
TTITLE7=El Rey del Timbal
TTITLE8=Picadillo
TTITLE9=Timbalero
EXTD=YEAR: 1995
EXTT0=
EXTT1=
EXTT2=
EXTT3=
EXTT4=
EXTT5=
EXTT6=
EXTT7=
EXTT8=
EXTT9=
PLAYORDER=
